<svg width="20" height="20" viewBox="0 0 20 20" fill="none" xmlns="http://www.w3.org/2000/svg">
<path d="M7.22592 8.49827L9.49549 6.79647L9.50657 4.37668L6.38283 2.07654C5.37857 2.53587 4.46417 3.18348 3.69238 3.99199L4.83845 7.67628L7.22592 8.49827Z" fill="#1BB96B"/>
<path d="M7.90869 9.26876L8.65271 11.5344H11.3849L12.1621 9.31589L10 7.69995L7.90869 9.26876Z" fill="#1BB96B"/>
<path d="M13.1759 9.5266L12.3198 11.9689L13.722 14.2647L17.5869 14.283C17.8445 13.8271 18.0743 13.3498 18.2508 12.8371C18.4533 12.2494 18.6211 11.6546 18.6941 11.0608L15.5186 8.77844L13.1759 9.5266Z" fill="#1BB96B"/>
<path d="M10.5215 6.80825L12.8551 8.55266L15.2108 7.8005L16.4468 4.12142C15.6789 3.27659 14.7369 2.57357 13.6508 2.07471L10.5327 4.35656L10.5215 6.80825Z" fill="#1BB96B"/>
<path d="M2.90948 4.93127C2.43172 5.59918 2.03795 6.34279 1.75714 7.15785C1.4766 7.9729 1.28498 8.80143 1.25 9.62183L3.82348 7.86928L2.90948 4.93127Z" fill="#1BB96B"/>
<path d="M7.74276 12.0509L6.89553 9.46943L4.50458 8.64636L1.28857 10.8441C1.40915 12.0584 1.82736 13.226 2.41942 14.2768L6.24819 14.2617L7.74276 12.0509Z" fill="#1BB96B"/>
<path d="M12.9082 18.2001C14.4785 17.6422 15.8857 16.6545 16.9222 15.3063L13.837 15.2919L12.9082 18.2001Z" fill="#1BB96B"/>
<path d="M8.63562 12.5605L7.08496 14.8545L8.2572 18.536C8.83751 18.6551 9.41969 18.7517 9.99639 18.7517C10.5842 18.7517 11.1602 18.6399 11.7277 18.524L12.8926 14.8752L11.479 12.5605H8.63562Z" fill="#1BB96B"/>
<path d="M12.4942 1.64965C10.6644 1.10379 9.25812 1.13103 7.52881 1.64631L10.0059 3.47056L12.4942 1.64965Z" fill="#1BB96B"/>
<path d="M3.08643 15.3002C4.07506 16.5941 5.43477 17.6235 7.07609 18.2087L6.14621 15.2882L3.08643 15.3002Z" fill="#1BB96B"/>
<path d="M18.7501 9.83307C18.7159 8.12686 18.1454 6.48287 17.2024 5.09485L16.2197 8.01963L18.7501 9.83307Z" fill="#1BB96B"/>
</svg>
