<svg width="16" height="20" viewBox="0 0 16 20" fill="none" xmlns="http://www.w3.org/2000/svg">
<path d="M16 13.0002C16 17.2547 13.3819 19.1216 11.3588 19.7512C11.2746 19.7774 11.196 19.7793 11.126 19.7627C10.8373 19.6942 10.6942 19.3101 10.9019 19.0116C11.7823 17.7464 12.8 15.8161 12.8 14.0002C12.8 12.0496 11.1559 9.74671 9.87212 8.32631C9.57861 8.00158 9.06666 8.21645 9.05066 8.65388C8.99763 10.1031 8.76894 12.042 7.78282 13.5616C7.6241 13.8062 7.28716 13.8264 7.10631 13.5977C6.79819 13.208 6.49008 12.7267 6.18197 12.3464C6.016 12.1416 5.71604 12.1388 5.52461 12.32C4.77825 13.0267 3.73333 14.1288 3.73333 15.5002C3.73333 16.4301 4.0936 17.405 4.50007 18.1893C4.70225 18.5795 4.39657 19.0415 4.01803 18.9595C3.97791 18.9508 3.93697 18.936 3.89573 18.9144C2.11307 17.9789 0 16.0838 0 13.0002C0 9.85375 4.31029 5.49503 5.95605 1.37712C6.21575 0.727327 7.01609 0.421992 7.57274 0.846031C10.9439 3.41409 16 8.37832 16 13.0002Z" fill="#3BFB82"/>
</svg>
