<svg width="20" height="20" viewBox="0 0 20 20" fill="none" xmlns="http://www.w3.org/2000/svg">
<path d="M8.80371 14.3066C8.66679 14.3066 8.53803 14.36 8.4412 14.4568C8.34437 14.5537 8.29102 14.6824 8.29102 14.8193C8.29102 14.9563 8.34437 15.085 8.4412 15.1819C8.53803 15.2787 8.66679 15.3321 8.80371 15.3321C8.94067 15.3321 9.06939 15.2787 9.16625 15.1819C9.36617 14.982 9.36617 14.6567 9.16625 14.4568C9.06939 14.36 8.94067 14.3066 8.80371 14.3066Z" fill="#808792"/>
<path d="M11.1963 7.26562H2.78809C1.93999 7.26562 1.25 7.95561 1.25 8.80371V17.2119C1.25 18.06 1.93999 18.75 2.78809 18.75H11.1963C12.0444 18.75 12.7344 18.06 12.7344 17.2119V8.80371C12.7344 7.95561 12.0444 7.26562 11.1963 7.26562ZM6.26823 12.2839C5.9777 12.5744 5.59147 12.7344 5.18063 12.7344C4.76979 12.7344 4.38356 12.5743 4.09303 12.2839C3.49335 11.6841 3.49335 10.7084 4.09303 10.1087C4.38353 9.81816 4.76976 9.65813 5.1806 9.65813C5.59144 9.65813 5.97767 9.81816 6.26819 10.1087C6.86794 10.7084 6.86794 11.6841 6.26823 12.2839ZM9.89131 15.9069C9.60078 16.1974 9.21455 16.3575 8.80371 16.3575C8.39287 16.3575 8.00664 16.1974 7.71611 15.9069C7.11643 15.3072 7.11643 14.3315 7.71611 13.7317C8.00664 13.4413 8.39287 13.2812 8.80371 13.2812C9.21455 13.2812 9.60078 13.4412 9.89131 13.7318C10.491 14.3315 10.491 15.3072 9.89131 15.9069Z" fill="#808792"/>
<path d="M5.18042 10.6835C5.04349 10.6835 4.91474 10.7368 4.81791 10.8337C4.61799 11.0336 4.61799 11.3588 4.81791 11.5587C4.91474 11.6556 5.04349 11.7089 5.18042 11.7089C5.31737 11.7089 5.44609 11.6556 5.54296 11.5587C5.63976 11.4619 5.69311 11.3331 5.69311 11.1962C5.69311 11.0592 5.63976 10.9305 5.54293 10.8337C5.44609 10.7368 5.31734 10.6835 5.18042 10.6835Z" fill="#808792"/>
<path d="M15.1609 4.32617C15.024 4.32617 14.8952 4.37953 14.7984 4.47636C14.5985 4.67627 14.5985 5.00153 14.7984 5.20145C14.8952 5.29828 15.024 5.35163 15.1609 5.35163C15.2978 5.35163 15.4266 5.29828 15.5234 5.20145C15.6202 5.10458 15.6736 4.97583 15.6736 4.83887C15.6736 4.70194 15.6202 4.57319 15.5234 4.47636C15.4266 4.37953 15.2978 4.32617 15.1609 4.32617Z" fill="#808792"/>
<path d="M11.217 5.20141C11.417 5.00149 11.417 4.67624 11.217 4.47632C11.1202 4.37953 10.9915 4.32617 10.8545 4.32617C10.7176 4.32617 10.5888 4.37953 10.492 4.47636C10.3952 4.57319 10.3418 4.70194 10.3418 4.83887C10.3418 4.97583 10.3952 5.10458 10.492 5.20141C10.5888 5.29824 10.7176 5.3516 10.8545 5.3516C10.9915 5.3516 11.1202 5.29824 11.217 5.20141Z" fill="#808792"/>
<path d="M15.5234 9.50799C15.6203 9.41116 15.6736 9.28241 15.6736 9.14548C15.6736 9.00853 15.6203 8.87977 15.5234 8.78294C15.3235 8.58309 14.9983 8.58309 14.7984 8.78294C14.5985 8.98286 14.5985 9.30811 14.7984 9.50803C14.8952 9.60486 15.024 9.65821 15.1609 9.65821C15.2978 9.65818 15.4266 9.60482 15.5234 9.50799Z" fill="#808792"/>
<path d="M17.2119 1.25H8.80371C7.95561 1.25 7.26562 1.93999 7.26562 2.78809V6.24023H10.2195C10.0532 6.16477 9.89992 6.05949 9.76689 5.92647C9.16721 5.32675 9.16721 4.35099 9.76689 3.75127C10.0574 3.46081 10.4437 3.30078 10.8545 3.30078C11.2653 3.30078 11.6516 3.46078 11.9421 3.7513C12.5418 4.35102 12.5418 5.32678 11.9421 5.9265C11.801 6.06752 11.6373 6.17752 11.4592 6.25367C12.6638 6.37695 13.6241 7.33774 13.7465 8.54258C13.8214 8.36642 13.9301 8.20133 14.0735 8.05791C14.6732 7.45823 15.649 7.45826 16.2487 8.05788C16.8484 8.65763 16.8484 9.63339 16.2487 10.2331C15.9582 10.5236 15.5719 10.6836 15.1611 10.6836C14.7503 10.6836 14.364 10.5236 14.0735 10.2331C13.9384 10.098 13.834 9.94364 13.7597 9.77893V12.7344H17.2119C18.06 12.7344 18.75 12.0444 18.75 11.1963V2.78809C18.75 1.93999 18.06 1.25 17.2119 1.25ZM16.2487 5.92647C15.9582 6.21696 15.5719 6.37699 15.1611 6.37699C14.7503 6.37699 14.364 6.21696 14.0735 5.92647C13.4738 5.32675 13.4738 4.35099 14.0735 3.75127C14.364 3.46081 14.7503 3.30078 15.1611 3.30078C15.572 3.30078 15.9582 3.46078 16.2487 3.7513C16.8484 4.35102 16.8484 5.32675 16.2487 5.92647Z" fill="#808792"/>
</svg>
