<svg width="20" height="20" viewBox="0 0 20 20" fill="none" xmlns="http://www.w3.org/2000/svg">
<path d="M17.2119 9.52148H2.78809C1.93995 9.52148 1.25 10.2114 1.25 11.0596V17.2119C1.25 18.0601 1.93995 18.75 2.78809 18.75H17.2119C18.0601 18.75 18.75 18.0601 18.75 17.2119V11.0596C18.75 10.2114 18.0601 9.52148 17.2119 9.52148ZM5.89844 16.6992H3.84766C3.56428 16.6992 3.33496 16.4699 3.33496 16.1865V12.085C3.33496 11.8016 3.56428 11.5723 3.84766 11.5723C4.13104 11.5723 4.36036 11.8016 4.36036 12.085V15.6738H5.89844C6.18183 15.6738 6.41114 15.9031 6.41114 16.1865C6.41114 16.4699 6.18183 16.6992 5.89844 16.6992ZM8.46192 16.1865C8.46192 16.4699 8.23261 16.6992 7.94923 16.6992C7.66584 16.6992 7.43653 16.4699 7.43653 16.1865V12.085C7.43653 11.8016 7.66584 11.5723 7.94923 11.5723C8.23261 11.5723 8.46192 11.8016 8.46192 12.085V16.1865ZM12.548 12.2091L11.5226 16.3107C11.4655 16.539 11.2607 16.6992 11.0254 16.6992C10.7901 16.6992 10.5853 16.539 10.5282 16.3107L9.50283 12.2091C9.43376 11.9348 9.60096 11.6564 9.87584 11.5878C10.1497 11.5167 10.4286 11.6859 10.4972 11.9608L11.0254 14.0727L11.5536 11.9608C11.6217 11.686 11.9001 11.5162 12.175 11.5878C12.4498 11.6564 12.6171 11.9348 12.548 12.2091ZM16.1524 13.6231C16.4357 13.6231 16.6651 13.8524 16.6651 14.1357C16.6651 14.4191 16.4357 14.6484 16.1524 14.6484H14.6143V15.6738H16.1524C16.4357 15.6738 16.6651 15.9031 16.6651 16.1865C16.6651 16.4699 16.4357 16.6992 16.1524 16.6992H14.1016C13.8182 16.6992 13.5889 16.4699 13.5889 16.1865V12.085C13.5889 11.8016 13.8182 11.5723 14.1016 11.5723H16.1524C16.4357 11.5723 16.6651 11.8016 16.6651 12.085C16.6651 12.3683 16.4357 12.5977 16.1524 12.5977H14.6143V13.6231H16.1524Z" fill="#808792"/>
<path d="M5.48776 8.22299C3.99171 6.23027 3.99171 3.4475 5.48776 1.45478C5.6575 1.22899 5.97944 1.18241 6.20574 1.35266C6.43204 1.5229 6.47761 1.84433 6.30787 2.07063C5.08372 3.70036 5.08372 5.97745 6.30787 7.60714C6.47761 7.83344 6.43204 8.15487 6.20574 8.32512C5.98039 8.49417 5.65832 8.45035 5.48776 8.22299Z" fill="#808792"/>
<path d="M13.7941 8.32514C13.5678 8.15493 13.5222 7.83346 13.6919 7.60716C14.9161 5.97744 14.9161 3.70035 13.6919 2.07066C13.5222 1.84435 13.5678 1.52293 13.7941 1.35268C14.0204 1.18294 14.3428 1.22902 14.512 1.45481C16.0081 3.44752 16.0081 6.2303 14.512 8.22301C14.3418 8.45003 14.0199 8.49447 13.7941 8.32514Z" fill="#808792"/>
<path d="M7.32468 7.23151C6.10303 5.86767 6.10303 3.80988 7.32468 2.446C7.51394 2.23522 7.8394 2.2182 8.04868 2.40594C8.25946 2.59468 8.27748 2.91915 8.08874 3.12994C7.21654 4.10427 7.21654 5.57324 8.08874 6.54757C8.27748 6.75836 8.25946 7.08279 8.04868 7.27157C7.83861 7.46007 7.51363 7.44291 7.32468 7.23151Z" fill="#808792"/>
<path d="M11.9514 7.27158C11.7406 7.08284 11.7226 6.75837 11.9113 6.54759C12.7835 5.57326 12.7835 4.10428 11.9113 3.12996C11.7226 2.91917 11.7406 2.59474 11.9514 2.40596C12.1617 2.2177 12.4866 2.23472 12.6754 2.44602C13.897 3.80986 13.897 5.86765 12.6754 7.23153C12.4865 7.44286 12.1615 7.46012 11.9514 7.27158Z" fill="#808792"/>
<path d="M10 6.37696C9.15187 6.37696 8.46191 5.68701 8.46191 4.83887C8.46191 3.99073 9.15187 3.30078 10 3.30078C10.8481 3.30078 11.5381 3.99073 11.5381 4.83887C11.5381 5.68701 10.8482 6.37696 10 6.37696Z" fill="#808792"/>
</svg>
