<svg width="24" height="24" viewBox="0 0 24 24" fill="none" xmlns="http://www.w3.org/2000/svg">
<g clip-path="url(#clip0_32_1295)">
<path d="M8.38719 19.451L13.1172 6.27498C13.1172 6.27498 13.2872 5.80498 13.7572 5.97298L23.1672 9.35198C23.1672 9.35198 23.6382 9.52098 23.4692 9.99198L18.7392 23.168C18.7392 23.168 18.5692 23.638 18.0992 23.47L8.68919 20.09C8.68919 20.09 8.21819 19.922 8.38719 19.451Z" fill="#15582E" stroke="#3BFB82" stroke-width="1.5" stroke-linecap="round" stroke-linejoin="round"/>
<path d="M9.57288 16.149L4.25587 17.374C4.19185 17.3888 4.12554 17.3909 4.06072 17.38C3.99591 17.3692 3.93387 17.3457 3.87814 17.3109C3.82242 17.276 3.7741 17.2306 3.73596 17.1771C3.69783 17.1235 3.67061 17.063 3.65587 16.999L0.512875 3.357C0.498058 3.29298 0.496007 3.22666 0.506839 3.16185C0.517671 3.09703 0.541173 3.03499 0.576001 2.97926C0.610829 2.92354 0.6563 2.87523 0.709814 2.83709C0.763328 2.79895 0.823835 2.77173 0.887875 2.757L10.6319 0.512997C10.6959 0.498181 10.7622 0.49613 10.827 0.506961C10.8918 0.517793 10.9539 0.541295 11.0096 0.576123C11.0653 0.610951 11.1136 0.656422 11.1518 0.709936C11.1899 0.76345 11.2171 0.823957 11.2319 0.887997L12.7259 7.368L9.57288 16.149Z" fill="#15582E"/>
<path d="M11.7602 3.77599L7.11523 16.715L9.57323 16.148L12.7262 7.36799L11.8592 3.60999C11.816 3.65853 11.7824 3.71487 11.7602 3.77599Z" fill="#1B713A"/>
<path d="M9.57288 16.149L4.25587 17.374C4.19185 17.3888 4.12554 17.3909 4.06072 17.38C3.99591 17.3692 3.93387 17.3457 3.87814 17.3109C3.82242 17.276 3.7741 17.2306 3.73596 17.1771C3.69783 17.1235 3.67061 17.063 3.65587 16.999L0.512875 3.357C0.498058 3.29298 0.496007 3.22666 0.506839 3.16185C0.517671 3.09703 0.541173 3.03499 0.576001 2.97926C0.610829 2.92354 0.6563 2.87523 0.709814 2.83709C0.763328 2.79895 0.823835 2.77173 0.887875 2.757L10.6319 0.512997C10.6959 0.498181 10.7622 0.49613 10.827 0.506961C10.8918 0.517793 10.9539 0.541295 11.0096 0.576123C11.0653 0.610951 11.1136 0.656422 11.1518 0.709936C11.1899 0.76345 11.2171 0.823957 11.2319 0.887997L12.7259 7.368L9.57288 16.149Z" stroke="#3BFB82" stroke-width="1.5" stroke-linecap="round" stroke-linejoin="round"/>
<path d="M14.7351 16.818L14.1271 14.37C14.1033 14.2742 14.1083 14.1736 14.1416 14.0807C14.1749 13.9878 14.2349 13.9068 14.3141 13.848L16.3401 12.348C16.4062 12.299 16.4834 12.267 16.5648 12.255C16.6462 12.243 16.7293 12.2512 16.8068 12.279C16.8842 12.3068 16.9536 12.3533 17.0088 12.4143C17.064 12.4754 17.1032 12.5491 17.1231 12.629L17.7311 15.077C17.7549 15.1727 17.7498 15.2734 17.7166 15.3663C17.6833 15.4592 17.6233 15.5401 17.5441 15.599L15.5181 17.099C15.452 17.148 15.3748 17.1799 15.2934 17.1919C15.212 17.204 15.1289 17.1957 15.0514 17.1679C14.974 17.1401 14.9046 17.0936 14.8494 17.0326C14.7942 16.9716 14.7549 16.8978 14.7351 16.818Z" fill="#1B713A" stroke="#3BFB82" stroke-width="1.5" stroke-linecap="round" stroke-linejoin="round"/>
<path d="M9.39318 8.49402C9.61718 9.46902 8.75618 10.182 7.78118 10.407C6.80618 10.632 5.71918 10.367 5.49418 9.39302C5.26918 8.41902 6.88218 6.50702 6.88218 6.50702C6.88218 6.50702 9.16818 7.52002 9.39318 8.49402Z" fill="#1B713A" stroke="#3BFB82" stroke-width="1.5" stroke-linecap="round" stroke-linejoin="round"/>
<path d="M7.78076 10.407L8.00576 11.381" stroke="#3BFB82" stroke-width="1.5" stroke-linecap="round" stroke-linejoin="round"/>
<path d="M2.8999 4.23902C2.93277 4.23888 2.96534 4.24526 2.99573 4.25778C3.02612 4.27029 3.05373 4.2887 3.07697 4.31194C3.10021 4.33519 3.11862 4.3628 3.13114 4.39319C3.14366 4.42358 3.15003 4.45615 3.1499 4.48902" stroke="#3BFB82" stroke-width="2" stroke-linecap="round" stroke-linejoin="round"/>
<path d="M2.65088 4.48902C2.65075 4.45615 2.65712 4.42358 2.66964 4.39319C2.68216 4.3628 2.70057 4.33519 2.72381 4.31194C2.74705 4.2887 2.77466 4.27029 2.80505 4.25778C2.83544 4.24526 2.86801 4.23888 2.90088 4.23902" stroke="#3BFB82" stroke-width="2" stroke-linecap="round" stroke-linejoin="round"/>
<path d="M2.8999 4.73901C2.8336 4.73901 2.77001 4.71267 2.72313 4.66579C2.67624 4.61891 2.6499 4.55532 2.6499 4.48901" stroke="#3BFB82" stroke-width="2" stroke-linecap="round" stroke-linejoin="round"/>
<path d="M3.15088 4.48901C3.15088 4.55532 3.12454 4.61891 3.07766 4.66579C3.03077 4.71267 2.96718 4.73901 2.90088 4.73901" stroke="#3BFB82" stroke-width="1.5" stroke-linecap="round" stroke-linejoin="round"/>
<path d="M17.1392 20.389C17.2055 20.389 17.2691 20.4153 17.3159 20.4622C17.3628 20.5091 17.3892 20.5727 17.3892 20.639" stroke="#3BFB82" stroke-width="2" stroke-linecap="round" stroke-linejoin="round"/>
<path d="M16.8892 20.639C16.8892 20.5727 16.9155 20.5091 16.9624 20.4622C17.0093 20.4153 17.0729 20.389 17.1392 20.389" stroke="#3BFB82" stroke-width="2" stroke-linecap="round" stroke-linejoin="round"/>
<path d="M17.1392 20.889C17.0729 20.889 17.0093 20.8626 16.9624 20.8158C16.9155 20.7689 16.8892 20.7053 16.8892 20.639" stroke="#3BFB82" stroke-width="2" stroke-linecap="round" stroke-linejoin="round"/>
<path d="M17.3892 20.639C17.3892 20.7053 17.3628 20.7689 17.3159 20.8158C17.2691 20.8626 17.2055 20.889 17.1392 20.889" stroke="#3BFB82" stroke-width="1.5" stroke-linecap="round" stroke-linejoin="round"/>
<path d="M14.6392 8.38898C14.7055 8.38898 14.7691 8.41532 14.8159 8.4622C14.8628 8.50908 14.8892 8.57267 14.8892 8.63898" stroke="#3BFB82" stroke-width="2" stroke-linecap="round" stroke-linejoin="round"/>
<path d="M14.3892 8.63898C14.3892 8.57267 14.4155 8.50908 14.4624 8.4622C14.5093 8.41532 14.5729 8.38898 14.6392 8.38898" stroke="#3BFB82" stroke-width="2" stroke-linecap="round" stroke-linejoin="round"/>
<path d="M14.6392 8.88898C14.5729 8.88898 14.5093 8.86264 14.4624 8.81575C14.4155 8.76887 14.3892 8.70528 14.3892 8.63898" stroke="#3BFB82" stroke-width="2" stroke-linecap="round" stroke-linejoin="round"/>
<path d="M14.8892 8.63898C14.8892 8.70528 14.8628 8.76887 14.8159 8.81575C14.7691 8.86264 14.7055 8.88898 14.6392 8.88898" stroke="#3BFB82" stroke-width="1.5" stroke-linecap="round" stroke-linejoin="round"/>
</g>
<defs>
<clipPath id="clip0_32_1295">
<rect width="24" height="24" fill="white"/>
</clipPath>
</defs>
</svg>
