<svg width="24" height="24" viewBox="0 0 24 24" fill="none" xmlns="http://www.w3.org/2000/svg">
<path d="M6.49982 9.5L4.58882 21.924C4.57786 21.9952 4.58244 22.068 4.60223 22.1373C4.62202 22.2066 4.65655 22.2708 4.70347 22.3255C4.75039 22.3802 4.80858 22.4241 4.87406 22.4542C4.93953 22.4844 5.01075 22.5 5.08282 22.5H9.49982V19C9.49982 18.337 9.76321 17.7011 10.2321 17.2322C10.7009 16.7634 11.3368 16.5 11.9998 16.5C12.6629 16.5 13.2987 16.7634 13.7676 17.2322C14.2364 17.7011 14.4998 18.337 14.4998 19V22.5H18.9148C18.9869 22.5 19.0581 22.4844 19.1236 22.4542C19.1891 22.4241 19.2472 22.3802 19.2942 22.3255C19.3411 22.2708 19.3756 22.2066 19.3954 22.1373C19.4152 22.068 19.4198 21.9952 19.4088 21.924L17.4998 9.5" fill="#15582E"/>
<path d="M4 1.5C3.86739 1.5 3.74021 1.55268 3.64645 1.64645C3.55268 1.74021 3.5 1.86739 3.5 2V8C3.5 8.39782 3.65804 8.77936 3.93934 9.06066C4.22064 9.34196 4.60218 9.5 5 9.5H19C19.3978 9.5 19.7794 9.34196 20.0607 9.06066C20.342 8.77936 20.5 8.39782 20.5 8V2C20.5 1.86739 20.4473 1.74021 20.3536 1.64645C20.2598 1.55268 20.1326 1.5 20 1.5H18C17.8674 1.5 17.7402 1.55268 17.6464 1.64645C17.5527 1.74021 17.5 1.86739 17.5 2V3C17.5 3.39782 17.342 3.77936 17.0607 4.06066C16.7794 4.34196 16.3978 4.5 16 4.5C15.6022 4.5 15.2206 4.34196 14.9393 4.06066C14.658 3.77936 14.5 3.39782 14.5 3V2C14.5 1.86739 14.4473 1.74021 14.3536 1.64645C14.2598 1.55268 14.1326 1.5 14 1.5H10C9.86739 1.5 9.74021 1.55268 9.64645 1.64645C9.55268 1.74021 9.5 1.86739 9.5 2V3C9.5 3.39782 9.34196 3.77936 9.06066 4.06066C8.77936 4.34196 8.39782 4.5 8 4.5C7.60218 4.5 7.22064 4.34196 6.93934 4.06066C6.65804 3.77936 6.5 3.39782 6.5 3V2C6.5 1.86739 6.44732 1.74021 6.35355 1.64645C6.25979 1.55268 6.13261 1.5 6 1.5H4Z" fill="#15582E"/>
<path d="M11.9998 9.5H6.49982L4.58882 21.924C4.57786 21.9952 4.58244 22.068 4.60223 22.1373C4.62202 22.2066 4.65655 22.2708 4.70347 22.3255C4.75039 22.3802 4.80858 22.4241 4.87406 22.4542C4.93953 22.4844 5.01075 22.5 5.08282 22.5H9.49982V19C9.49982 18.337 9.76321 17.7011 10.2321 17.2322C10.7009 16.7634 11.3368 16.5 11.9998 16.5V9.5Z" fill="#1B713A"/>
<path d="M12 1.5H10C9.86739 1.5 9.74021 1.55268 9.64645 1.64645C9.55268 1.74021 9.5 1.86739 9.5 2V3C9.5 3.39782 9.34196 3.77936 9.06066 4.06066C8.77936 4.34196 8.39782 4.5 8 4.5C7.60218 4.5 7.22064 4.34196 6.93934 4.06066C6.65804 3.77936 6.5 3.39782 6.5 3V2C6.5 1.86739 6.44732 1.74021 6.35355 1.64645C6.25979 1.55268 6.13261 1.5 6 1.5H4C3.86739 1.5 3.74021 1.55268 3.64645 1.64645C3.55268 1.74021 3.5 1.86739 3.5 2V8C3.5 8.39782 3.65804 8.77936 3.93934 9.06066C4.22064 9.34196 4.60218 9.5 5 9.5H12V1.5Z" fill="#1B713A"/>
<path d="M6.49982 9.5L4.58882 21.924C4.57786 21.9952 4.58244 22.068 4.60223 22.1373C4.62202 22.2066 4.65655 22.2708 4.70347 22.3255C4.75039 22.3802 4.80858 22.4241 4.87406 22.4542C4.93953 22.4844 5.01075 22.5 5.08282 22.5H9.49982V19C9.49982 18.337 9.76321 17.7011 10.2321 17.2322C10.7009 16.7634 11.3368 16.5 11.9998 16.5C12.6629 16.5 13.2987 16.7634 13.7676 17.2322C14.2364 17.7011 14.4998 18.337 14.4998 19V22.5H18.9148C18.9869 22.5 19.0581 22.4844 19.1236 22.4542C19.1891 22.4241 19.2472 22.3802 19.2942 22.3255C19.3411 22.2708 19.3756 22.2066 19.3954 22.1373C19.4152 22.068 19.4198 21.9952 19.4088 21.924L17.4998 9.5" stroke="#3BFB82" stroke-width="1.5" stroke-linecap="round" stroke-linejoin="round"/>
<path d="M4 1.5C3.86739 1.5 3.74021 1.55268 3.64645 1.64645C3.55268 1.74021 3.5 1.86739 3.5 2V8C3.5 8.39782 3.65804 8.77936 3.93934 9.06066C4.22064 9.34196 4.60218 9.5 5 9.5H19C19.3978 9.5 19.7794 9.34196 20.0607 9.06066C20.342 8.77936 20.5 8.39782 20.5 8V2C20.5 1.86739 20.4473 1.74021 20.3536 1.64645C20.2598 1.55268 20.1326 1.5 20 1.5H18C17.8674 1.5 17.7402 1.55268 17.6464 1.64645C17.5527 1.74021 17.5 1.86739 17.5 2V3C17.5 3.39782 17.342 3.77936 17.0607 4.06066C16.7794 4.34196 16.3978 4.5 16 4.5C15.6022 4.5 15.2206 4.34196 14.9393 4.06066C14.658 3.77936 14.5 3.39782 14.5 3V2C14.5 1.86739 14.4473 1.74021 14.3536 1.64645C14.2598 1.55268 14.1326 1.5 14 1.5H10C9.86739 1.5 9.74021 1.55268 9.64645 1.64645C9.55268 1.74021 9.5 1.86739 9.5 2V3C9.5 3.39782 9.34196 3.77936 9.06066 4.06066C8.77936 4.34196 8.39782 4.5 8 4.5C7.60218 4.5 7.22064 4.34196 6.93934 4.06066C6.65804 3.77936 6.5 3.39782 6.5 3V2C6.5 1.86739 6.44732 1.74021 6.35355 1.64645C6.25979 1.55268 6.13261 1.5 6 1.5H4Z" stroke="#3BFB82" stroke-width="1.5" stroke-linecap="round" stroke-linejoin="round"/>
</svg>
