<svg width="32" height="32" viewBox="0 0 32 32" fill="none" xmlns="http://www.w3.org/2000/svg">
<path d="M27.3127 27.3148C21.065 33.5626 10.9335 33.5626 4.6858 27.3148C-1.56193 21.0671 -1.56193 10.9356 4.6858 4.68787C10.9335 -1.55986 21.065 -1.55986 27.3127 4.68787C33.5605 10.9356 33.5605 21.0671 27.3127 27.3148Z" fill="#3BFB82"/>
<path d="M15.9998 0.00142977C19.5364 0.00142977 23.0745 1.16555 25.9856 3.49667C26.7326 4.09516 26.784 5.21644 26.107 5.89349L5.89398 26.1065C5.21693 26.7835 4.09565 26.7335 3.49716 25.9851C1.16604 23.074 0.000488281 19.5374 0.000488281 16.0007C0.000488281 11.9055 1.56314 7.81181 4.68701 4.68652C7.81087 1.56123 11.906 0 16.0012 0L15.9998 0.00142977Z" fill="#2FC968"/>
<path d="M21.4404 2.9796L2.97865 21.4414C2.27732 22.1427 1.07606 21.8628 0.771816 20.9186C0.2576 19.3231 0.000488281 17.6619 0.000488281 16.0007C0.000488281 11.9055 1.56314 7.81181 4.68701 4.68652C7.81087 1.56123 11.906 0 16.0012 0C17.6624 0 19.3236 0.257112 20.9191 0.771328C21.8618 1.07557 22.1418 2.27683 21.4419 2.97817L21.4404 2.9796Z" fill="#3BFB82"/>
<path d="M4.68555 27.3149C10.9333 33.5641 21.0648 33.5641 27.3125 27.3149C33.5602 21.0672 33.5602 10.9357 27.3125 4.68799L4.68555 27.3149Z" fill="#3BFB82"/>
<path d="M31.9991 16.0006C31.9991 20.0958 30.4365 24.1895 27.3126 27.3148C22.1019 32.5255 14.1915 33.3911 8.08521 29.9102C7.25104 29.4345 7.09107 28.3004 7.76955 27.6219L27.6212 7.77029C28.2911 7.10038 29.4238 7.23751 29.8937 8.06026C31.2964 10.5128 31.9977 13.2553 31.9977 15.9992L31.9991 16.0006Z" fill="#3BFB82"/>
<path d="M11.439 29.3732C10.7434 30.0688 11.0691 31.2587 12.0232 31.5029C17.3182 32.8556 23.1689 31.4601 27.314 27.3163C31.4578 23.1726 32.8533 17.3206 31.5006 12.0256C31.2564 11.0714 30.0679 10.7457 29.3709 11.4413L11.439 29.3732Z" fill="#3BFB82"/>
<path d="M7.92082 7.92326C12.3816 3.46243 19.615 3.46243 24.0758 7.92326C28.5366 12.3841 28.5366 19.6174 24.0758 24.0782C19.615 28.539 12.3816 28.539 7.92082 24.0782C3.45999 19.6174 3.45999 12.3841 7.92082 7.92326Z" fill="#203626"/>
<path d="M19.6023 20.1944C19.0324 20.7743 18.2225 21.16 17.174 21.3514C17.0369 21.3771 16.9369 21.4985 16.9369 21.6385V22.8126C16.9369 22.974 16.8055 23.1054 16.6441 23.1054H15.3757C15.2143 23.1054 15.0829 22.974 15.0829 22.8126V21.7227C15.0829 21.5699 14.9658 21.4456 14.8144 21.4314C14.1402 21.3699 13.4988 21.2457 12.8903 21.0585C12.3076 20.88 11.8091 20.6672 11.3948 20.4186C11.2677 20.3429 11.2177 20.1829 11.2777 20.0472L12.0433 18.3275C12.1133 18.1689 12.3061 18.1075 12.4561 18.1946C12.8732 18.436 13.3431 18.636 13.8631 18.796C14.5016 18.9917 15.13 19.0888 15.7471 19.0888C16.9212 19.0888 17.5083 18.796 17.5083 18.2089C17.5083 17.9004 17.3412 17.6704 17.0069 17.5219C16.6727 17.3733 16.1342 17.2162 15.3929 17.0505C14.5787 16.8762 13.9002 16.6877 13.3546 16.4863C12.8089 16.2849 12.3404 15.9635 11.949 15.5207C11.5577 15.0779 11.362 14.4809 11.362 13.7295C11.362 12.8439 11.6805 12.084 12.319 11.4513C12.9132 10.8614 13.7531 10.4843 14.8386 10.3186C14.9801 10.2971 15.0843 10.1729 15.0843 10.03V8.87876C15.0843 8.71736 15.2157 8.58594 15.3771 8.58594H16.6456C16.807 8.58594 16.9384 8.71736 16.9384 8.87876V9.99004C16.9384 10.14 17.0526 10.2629 17.2012 10.28C17.694 10.3371 18.1711 10.4314 18.6296 10.5628C19.0709 10.6885 19.4737 10.8456 19.8365 11.0342C19.9722 11.1042 20.0322 11.267 19.9737 11.407L19.2538 13.1425C19.1895 13.2982 19.0067 13.3667 18.8567 13.2925C17.9239 12.8311 17.0169 12.6011 16.137 12.6011C15.53 12.6011 15.0872 12.6911 14.8087 12.8711C14.5301 13.051 14.3916 13.2853 14.3916 13.5738C14.3916 13.8624 14.5558 14.078 14.8858 14.2223C15.2157 14.3666 15.7457 14.5151 16.477 14.6708C17.3012 14.8465 17.9825 15.0336 18.5239 15.235C19.0638 15.4364 19.5323 15.755 19.9294 16.1921C20.3251 16.6306 20.5236 17.2248 20.5236 17.9761C20.5236 18.8303 20.2165 19.5702 19.6051 20.1929L19.6023 20.1944Z" fill="#2FC968"/>
</svg>
