<svg width="24" height="24" viewBox="0 0 24 24" fill="none" xmlns="http://www.w3.org/2000/svg">
<g clip-path="url(#clip0_30_1021)">
<path d="M3.5 15C3.5 17.2543 4.39553 19.4163 5.98959 21.0104C7.58365 22.6045 9.74566 23.5 12 23.5C14.2543 23.5 16.4163 22.6045 18.0104 21.0104C19.6045 19.4163 20.5 17.2543 20.5 15C20.5 12.7457 19.6045 10.5837 18.0104 8.98959C16.4163 7.39553 14.2543 6.5 12 6.5C9.74566 6.5 7.58365 7.39553 5.98959 8.98959C4.39553 10.5837 3.5 12.7457 3.5 15Z" fill="#15582E"/>
<path d="M12 9.49998C13.9944 9.49966 15.9255 10.2007 17.4552 11.4803C18.985 12.76 20.016 14.5369 20.368 16.5C20.5861 15.2767 20.5334 14.0205 20.2135 12.8197C19.8937 11.619 19.3144 10.5031 18.5166 9.55041C17.7189 8.59776 16.7219 7.83161 15.596 7.30593C14.4701 6.78025 13.2426 6.50781 12 6.50781C10.7574 6.50781 9.52994 6.78025 8.40403 7.30593C7.27811 7.83161 6.28115 8.59776 5.48335 9.55041C4.68555 10.5031 4.10632 11.619 3.78645 12.8197C3.46659 14.0205 3.41386 15.2767 3.632 16.5C3.98396 14.5369 5.01502 12.76 6.54478 11.4803C8.07454 10.2007 10.0056 9.49966 12 9.49998Z" fill="#15582E"/>
<path d="M18.491 9.51198L19.491 8.18198C19.6367 7.98932 19.7078 7.75042 19.6911 7.50943C19.6743 7.26844 19.5709 7.04165 19.4 6.87098C18.658 6.09457 17.8067 5.43058 16.873 4.89998C16.6455 4.77753 16.3794 4.74787 16.1306 4.81722C15.8817 4.88656 15.6693 5.04953 15.538 5.27198L14.564 6.89498" fill="#15582E"/>
<path d="M18.491 9.51198L19.491 8.18198C19.6367 7.98932 19.7078 7.75042 19.6911 7.50943C19.6743 7.26844 19.5709 7.04165 19.4 6.87098C18.658 6.09457 17.8067 5.43058 16.873 4.89998C16.6455 4.77753 16.3794 4.74787 16.1306 4.81722C15.8817 4.88656 15.6693 5.04953 15.538 5.27198L14.564 6.89498" stroke="#35E275" stroke-width="1.5" stroke-linecap="round" stroke-linejoin="round"/>
<path d="M6.50004 8.52096C7.78177 7.43296 9.35737 6.74949 11.0276 6.557C12.6977 6.36451 14.3875 6.67164 15.8831 7.43955C17.3788 8.20746 18.6131 9.40165 19.43 10.8711C20.2468 12.3405 20.6096 14.0192 20.4724 15.6949C20.3352 17.3705 19.7041 18.9678 18.659 20.2848C17.614 21.6017 16.2018 22.5792 14.6012 23.0936C13.0005 23.6079 11.2833 23.636 9.6667 23.1744C8.05008 22.7127 6.60668 21.782 5.51904 20.5" stroke="#35E275" stroke-width="1.5" stroke-linecap="round" stroke-linejoin="round"/>
<path d="M18.2061 5.793L20.5001 3.5" stroke="#35E275" stroke-width="1.5" stroke-linecap="round" stroke-linejoin="round"/>
<path d="M22 2L23.5 0.5" stroke="#35E275" stroke-width="1.5" stroke-linecap="round" stroke-linejoin="round"/>
<path d="M22 4.5L23.5 5.5" stroke="#35E275" stroke-width="1.5" stroke-linecap="round" stroke-linejoin="round"/>
<path d="M19.5 2L18.5 0.5" stroke="#35E275" stroke-width="1.5" stroke-linecap="round" stroke-linejoin="round"/>
<path opacity="0.5" d="M12.5 11.5H3.5" stroke="#35E275" stroke-width="1.5" stroke-linecap="round" stroke-linejoin="round"/>
<path d="M1.5 11.5H0.5" stroke="#35E275" stroke-width="1.5" stroke-linecap="round" stroke-linejoin="round"/>
<path opacity="0.5" d="M10.5 14.5H3.5" stroke="#35E275" stroke-width="1.5" stroke-linecap="round" stroke-linejoin="round"/>
<path d="M1.5 14.5H0.5" stroke="#35E275" stroke-width="1.5" stroke-linecap="round" stroke-linejoin="round"/>
<path opacity="0.5" d="M7.5 17.5H3.5" stroke="#35E275" stroke-width="1.5" stroke-linecap="round" stroke-linejoin="round"/>
<path d="M1.5 17.5H0.5" stroke="#35E275" stroke-width="1.5" stroke-linecap="round" stroke-linejoin="round"/>
</g>
<defs>
<clipPath id="clip0_30_1021">
<rect width="24" height="24" fill="white"/>
</clipPath>
</defs>
</svg>
