<svg width="48" height="30" viewBox="0 0 48 30" fill="none" xmlns="http://www.w3.org/2000/svg">
<g clip-path="url(#clip0_207_1453)">
<path d="M44.9329 3.68764C44.9329 3.72262 44.9329 3.76634 44.9239 3.79258C44.8789 4.13363 44.8789 4.47468 44.9059 4.82448C44.9239 4.91193 44.9419 4.99938 45.0139 5.06934C45.1308 5.20051 45.3106 5.17428 45.3826 5.01687C45.4186 4.93817 45.4186 4.85946 45.4006 4.78076C45.3106 4.44845 45.2927 4.09865 45.2837 3.75759C45.2837 3.74011 45.2837 3.71387 45.2837 3.68764C45.3826 3.67889 45.4726 3.67015 45.5535 3.67015C45.6165 3.6614 45.6705 3.65266 45.7155 3.62642C45.8504 3.55647 45.8504 3.4078 45.7064 3.33784C45.6525 3.3116 45.5805 3.30286 45.5176 3.30286C45.2927 3.3116 45.0678 3.3116 44.8429 3.3116C44.762 3.3116 44.681 3.32035 44.6 3.32909C44.5551 3.33784 44.5011 3.33784 44.4652 3.36408C44.4021 3.39031 44.3662 3.43403 44.3662 3.49524C44.3752 3.55647 44.4021 3.59144 44.4652 3.61768C44.5011 3.64392 44.5461 3.65266 44.5911 3.65266C44.699 3.6614 44.816 3.67889 44.9329 3.68764ZM47.4065 4.08991C47.4065 4.09865 47.4155 4.10739 47.4155 4.10739C47.4515 4.34351 47.4875 4.57088 47.5145 4.79825C47.5235 4.87695 47.5325 4.94691 47.5865 5.00812C47.7034 5.15679 47.8833 5.1393 47.9642 4.98189C48.0002 4.90319 48.0092 4.82448 47.9912 4.73703C47.9373 4.47468 47.9103 4.21233 47.8563 3.95873C47.8203 3.80132 47.7754 3.65266 47.7304 3.51274C47.7034 3.42529 47.6404 3.36407 47.5325 3.35533C47.4246 3.33784 47.3436 3.39031 47.2986 3.46902C47.2446 3.53897 47.1996 3.60893 47.1636 3.68764C47.1007 3.82756 47.0467 3.96748 46.9748 4.09865C46.9658 4.13363 46.9568 4.15987 46.9388 4.1861C46.9298 4.16861 46.9208 4.15987 46.9208 4.15987C46.8039 3.94124 46.6959 3.72262 46.579 3.51274C46.561 3.49524 46.552 3.47776 46.543 3.46027C46.489 3.38157 46.4261 3.33784 46.3271 3.33784C46.2372 3.34658 46.1652 3.39905 46.1203 3.47776C46.1022 3.51274 46.1022 3.53897 46.0933 3.57395C46.0573 3.85379 46.0123 4.13363 45.9763 4.41347C45.9583 4.57088 45.9493 4.72829 45.9493 4.8857C45.9403 4.92067 45.9493 4.9644 45.9673 4.99938C45.9853 5.06934 46.0393 5.11307 46.1112 5.12181C46.2012 5.13056 46.2641 5.10432 46.2911 5.03436C46.3181 4.98189 46.3271 4.93817 46.3361 4.89445C46.3721 4.73703 46.3991 4.58837 46.4261 4.43971C46.4441 4.35226 46.453 4.28229 46.4801 4.1861C46.498 4.22108 46.516 4.24732 46.534 4.27355C46.6149 4.37849 46.6959 4.48343 46.7949 4.57088C46.8938 4.64084 46.9748 4.63209 47.0557 4.55339C47.0738 4.5359 47.0827 4.52716 47.1007 4.50966C47.1817 4.38723 47.2806 4.26481 47.3615 4.14237C47.3796 4.12488 47.3886 4.10739 47.4065 4.08991Z" fill="#4CFF68"/>
<path d="M26.6801 3.85947C26.6176 4.02566 26.6057 4.14539 26.6345 4.24491C26.6664 4.38024 26.7492 4.42454 26.8615 4.39013C27.9181 4.13613 30.2349 4.85708 31.0926 5.05802C31.2949 5.10021 31.4595 4.84634 31.3215 4.61872C31.12 4.39829 28.8042 3.45453 27.9206 3.40308C27.5742 3.38405 26.955 3.2977 26.6801 3.85947Z" fill="#4CFF68"/>
<path d="M35.7348 0.804432C35.8474 0.867616 35.9104 0.927889 35.9414 0.995232C35.9877 1.08357 35.9633 1.14469 35.8856 1.17587C35.1872 1.50725 34.2578 2.93389 33.8827 3.42593C33.7917 3.53912 33.582 3.47334 33.5503 3.2872C33.5568 3.07674 34.3806 1.52852 34.8404 1.10683C35.0211 0.942193 35.3196 0.619153 35.7348 0.804432Z" fill="#4CFF68"/>
<path d="M30.173 0.102134C30.3083 0.00301287 30.4488 -0.031722 30.5206 0.032694C31.5744 0.908795 32.1332 2.29618 32.4792 3.5663C32.4922 3.59589 32.493 3.63835 32.4826 3.68265C32.4783 3.72051 32.4498 3.76051 32.4046 3.79145C32.3564 3.82562 32.3148 3.83603 32.2953 3.80658C31.8334 3.1959 29.1957 0.819832 30.173 0.102134Z" fill="#4CFF68"/>
<path d="M7.85897 15.2916C8.11152 15.1088 8.38608 14.9566 8.67662 14.8385C8.98059 14.754 9.30459 14.768 9.59966 14.8785C9.89465 14.9889 10.1447 15.1897 10.3119 15.4506C10.4615 15.7108 10.52 16.0112 10.4787 16.3065C10.4374 16.6018 10.2985 16.8761 10.0829 17.0881C9.91584 17.2599 9.7261 17.4096 9.51881 17.5333C8.59488 18.1136 7.66272 18.662 6.73061 19.2423C6.53988 19.3875 6.33754 19.5178 6.12554 19.6318C5.80307 19.7882 5.43454 19.83 5.08367 19.7502C4.7328 19.6704 4.42166 19.4739 4.20406 19.1946C4.04139 18.9969 3.9041 18.7807 3.79523 18.5507C2.91217 16.7463 1.9964 14.9498 1.14604 13.1135C0.753566 12.3187 0.434683 11.4045 0.123976 10.5221C-0.0104507 10.2658 -0.0367012 9.96856 0.0508139 9.69365C0.138329 9.41874 0.332705 9.18788 0.592595 9.05015C0.852487 8.91242 1.15738 8.87874 1.44245 8.9562C1.72751 9.03365 1.97026 9.21617 2.11904 9.4649C2.57638 10.0558 2.98122 10.6834 3.32917 11.3409C4.21223 12.9307 5.05442 14.5205 5.90477 16.0627C5.95429 16.1479 6.00889 16.2301 6.0683 16.3091C6.70834 16.0474 7.31033 15.7054 7.85897 15.2916Z" fill="#4CFF68"/>
<path d="M16.9892 14.737C14.9696 17.0342 11.5845 16.4539 9.88381 13.4969C8.67366 11.3983 8.46109 7.93251 11.094 5.74651C11.6562 5.28885 12.3285 4.97709 13.0481 4.8403C13.9305 4.71732 14.8303 4.86866 15.6189 5.27269C16.4074 5.67672 17.0445 6.31276 17.4389 7.08991C18.878 9.63364 18.6736 12.8768 16.9892 14.737ZM16.1715 9.37926C15.957 8.75416 15.5266 8.22051 14.9532 7.86889C14.6288 7.6441 14.2346 7.5348 13.837 7.55941C13.4394 7.58403 13.0626 7.74105 12.7701 8.00403C11.6009 9.0136 11.3556 11.4063 12.2059 12.8292C12.3143 13.0612 12.4735 13.2674 12.6724 13.4333C12.8713 13.5993 13.1052 13.721 13.3575 13.7899C13.6098 13.8588 13.8746 13.8733 14.1333 13.8323C14.392 13.7912 14.6384 13.6958 14.8552 13.5525C15.489 13.0748 15.954 12.417 16.1855 11.6705C16.417 10.924 16.4036 10.1259 16.1471 9.38723L16.1715 9.37926Z" fill="#4CFF68"/>
<path d="M25.2314 10.3808C25.0247 10.4241 24.8111 10.4267 24.6032 10.3884C24.3955 10.3502 24.1976 10.2719 24.0213 10.1583C23.8671 10.0725 23.7344 9.95463 23.6326 9.81301C23.5309 9.6714 23.4628 9.50967 23.4331 9.33936C23.4033 9.16911 23.4128 8.99456 23.4608 8.82826C23.5088 8.66197 23.5941 8.50808 23.7106 8.37765C23.9136 8.11556 24.2017 7.92792 24.5283 7.84508C25.3808 7.60454 26.2585 7.45788 27.1448 7.4079C27.3395 7.38588 27.5368 7.4019 27.725 7.45501C27.9133 7.5082 28.0887 7.59731 28.2411 7.71731C28.3934 7.83724 28.5196 7.98561 28.6121 8.15361C28.7046 8.32161 28.7617 8.5059 28.7801 8.69565C29.0356 9.6277 29.0635 10.6049 28.8618 11.5494C28.126 14.6018 25.5912 15.6511 22.7458 14.6734C21.947 14.4119 21.2467 13.9249 20.7344 13.2743C20.051 12.4909 19.5665 11.5625 19.3198 10.5637C19.12 9.67426 19.1419 8.75136 19.3837 7.87188C19.6255 6.9924 20.0802 6.18189 20.7098 5.50805C21.3073 4.77566 22.0829 4.19927 22.9666 3.83078C23.5249 3.53157 24.1784 3.44649 24.7981 3.59231C24.9387 3.63014 25.0663 3.70384 25.1677 3.80578C25.2691 3.90773 25.3406 4.03418 25.3749 4.17205C25.4091 4.30992 25.4047 4.45417 25.3623 4.58985C25.3197 4.72553 25.2407 4.84769 25.1334 4.94366C24.9292 5.12335 24.7073 5.2831 24.471 5.42061C23.7441 5.87065 23.1115 6.45057 22.6068 7.12965C22.2759 7.56908 22.0481 8.0737 21.9393 8.6079C21.8305 9.14211 21.8434 9.69301 21.9772 10.2219C22.1626 10.943 22.5741 11.5902 23.1546 12.074C24.9534 13.6639 27.2919 12.1296 26.8831 9.95954C26.2862 10.1027 25.7629 10.2537 25.2314 10.3808Z" fill="#4CFF68"/>
<path d="M36.2205 14.8642C33.5631 16.454 30.5378 14.8642 29.8755 11.5256C29.3931 9.14085 30.3088 5.80221 33.5141 4.53035C34.196 4.26557 34.9357 4.1726 35.6645 4.26008C36.5401 4.41591 37.3433 4.83497 37.9609 5.4582C38.5784 6.08143 38.9793 6.87735 39.1068 7.73385C39.6464 10.5717 38.42 13.6003 36.2205 14.8642ZM37.1445 9.51442C37.1436 8.85408 36.9034 8.21508 36.4658 7.70999C36.2319 7.39758 35.8938 7.17374 35.5091 7.07658C35.1243 6.97949 34.717 7.01508 34.3562 7.17742C32.9172 7.78151 31.9033 9.97547 32.2712 11.5892C32.2993 11.8424 32.384 12.0866 32.5192 12.3048C32.6545 12.5229 32.8372 12.7096 33.0545 12.852C33.2718 12.9943 33.5184 13.0888 33.7771 13.1288C34.0359 13.1688 34.3005 13.1534 34.5525 13.0836C35.3131 12.8253 35.9718 12.3425 36.4364 11.7026C36.9011 11.0627 37.1486 10.2977 37.1445 9.51442Z" fill="#4CFF68"/>
<path d="M41.7941 15.5318C41.754 15.8228 41.5967 16.0863 41.3567 16.2645C41.1167 16.4425 40.8138 16.5207 40.5145 16.4817C40.2153 16.4427 39.9442 16.2897 39.761 16.0564C39.5777 15.8232 39.4973 15.5286 39.5374 15.2377C39.5776 14.9468 39.7349 14.6832 39.9749 14.5051C40.2149 14.3269 40.5178 14.2488 40.8171 14.2878C41.1163 14.3268 41.3874 14.4797 41.5707 14.713C41.7539 14.9464 41.8343 15.2409 41.7941 15.5318ZM41.0828 4.80846C41.2383 4.57756 41.4664 4.40172 41.7332 4.30718C41.9998 4.21263 42.2909 4.20443 42.5627 4.28382C42.8392 4.35105 43.0833 4.50856 43.2546 4.72997C43.4257 4.95138 43.5134 5.22324 43.5031 5.50003C43.467 5.94401 43.3987 6.38496 43.2987 6.81957C43.0288 8.29018 42.7672 9.76073 42.481 11.2155C42.3502 11.7957 42.1785 12.3522 41.9904 12.9404C41.925 13.1243 41.8157 13.2904 41.6715 13.4253C41.5819 13.5267 41.4675 13.6045 41.3387 13.6515C41.2099 13.6986 41.071 13.7132 40.9349 13.6942C40.7988 13.6752 40.6698 13.6231 40.5598 13.5428C40.4499 13.4624 40.3626 13.3564 40.3061 13.2345C40.2088 13.0159 40.156 12.781 40.1507 12.543C40.1507 11.5572 40.1507 10.5636 40.2161 9.56995C40.3272 8.15191 40.5459 6.74374 40.8702 5.35694C40.9084 5.17115 40.9803 4.99347 41.0828 4.83231V4.80846Z" fill="#4CFF68"/>
<path fill-rule="evenodd" clip-rule="evenodd" d="M4.40429 21.9197C4.30775 22.1292 4.28127 22.3628 4.32845 22.5876C4.35983 22.8839 4.42877 23.1754 4.53368 23.4553C4.66467 23.7982 4.81124 24.1372 4.99196 24.555C5.03353 24.6511 5.07696 24.7515 5.12241 24.8571C5.36612 25.4231 5.67193 26.1465 6.07982 27.1935C6.19528 27.4909 6.2978 27.7907 6.40104 28.0927C6.44274 28.2146 6.4846 28.337 6.52744 28.4597C6.68102 28.8958 6.94526 29.2875 7.29553 29.598C7.44426 29.7687 7.64154 29.8931 7.86275 29.9552C8.08828 30.0187 8.32814 30.0146 8.55128 29.9437C8.77441 29.8727 8.97038 29.7382 9.11377 29.5574C9.25434 29.3802 9.33793 29.1667 9.35418 28.9436C9.44538 28.509 9.41425 28.0584 9.26394 27.6394C9.02538 26.9437 8.75363 26.247 8.44026 25.5656L8.43882 25.5626C7.9233 24.4965 7.39928 23.4378 6.85046 22.3787L6.84635 22.3712C6.68569 22.0953 6.47689 21.8486 6.22935 21.6423C6.06865 21.4582 5.84698 21.3339 5.60218 21.2911C5.35216 21.2474 5.0943 21.2914 4.87464 21.4155C4.66684 21.5308 4.50212 21.7074 4.40429 21.9197Z" fill="#4CFF68"/>
<path fill-rule="evenodd" clip-rule="evenodd" d="M12.2781 19.2945C11.4698 19.0909 10.6256 19.0613 9.80441 19.2076C9.16834 19.2685 8.54277 19.4111 8.10837 19.6937C7.88743 19.8375 7.7088 20.0221 7.60944 20.2568C7.50953 20.4928 7.49678 20.7626 7.57865 21.0633C7.72814 21.6141 7.92226 22.1496 8.1157 22.6834L8.14704 22.7698L8.1478 22.7717C8.73024 24.3225 9.31824 25.8679 9.91159 27.4081C9.98078 27.6508 10.0786 27.885 10.2032 28.1058L10.2055 28.1099C10.37 28.3843 10.581 28.6297 10.8296 28.8358C10.9539 28.9491 11.1076 29.0275 11.2743 29.0625C11.4427 29.0979 11.6177 29.0876 11.7804 29.0328C11.9432 28.9781 12.0874 28.8809 12.1972 28.7519C12.3053 28.625 12.376 28.4722 12.402 28.3095C12.5093 27.8675 12.4749 27.4042 12.3035 26.9818C12.25 26.8396 12.208 26.6943 12.1638 26.5414C12.1491 26.4904 12.1341 26.4385 12.1184 26.3857C13.4766 25.8695 14.9217 25.1755 15.4299 23.5609C15.6289 23.003 15.6455 22.3989 15.4773 21.8313C15.3091 21.2632 14.9638 20.7596 14.4891 20.3899C13.8431 19.8724 13.0885 19.4985 12.2781 19.2945ZM10.0376 21.2748C10.0643 21.2673 10.0912 21.2604 10.1183 21.2539C11.0025 21.1187 11.9072 21.2988 12.6657 21.7608C13 21.9868 13.1369 22.2379 13.1604 22.4796C13.1847 22.7284 13.0917 22.998 12.9047 23.2571C12.5515 23.7467 11.9069 24.1385 11.3247 24.2115C10.9003 23.2612 10.4692 22.2724 10.0376 21.2748Z" fill="#4CFF68"/>
<path d="M17.667 17.5549C18.6296 17.1227 19.822 17.0481 20.7551 17.3519C20.9901 17.4185 21.1939 17.5624 21.3318 17.7591C21.4688 17.9546 21.5321 18.1902 21.5109 18.4257C21.5096 18.5785 21.471 18.7289 21.3983 18.8646C21.3244 19.0028 21.2174 19.1215 21.0863 19.211C20.9552 19.3004 20.8038 19.3579 20.6451 19.3784C20.4863 19.399 20.3248 19.3821 20.1741 19.3291L20.1627 19.3251L20.1519 19.3195C20.0748 19.2803 19.993 19.2508 19.9083 19.2316L19.9029 19.2304C19.2466 19.0609 18.6274 19.3418 18.4013 19.6868C18.2934 19.8514 18.2801 20.0174 18.3699 20.1685C18.4661 20.3303 18.702 20.5119 19.1795 20.6413C19.3108 20.6764 19.4454 20.7102 19.5819 20.7445C19.9595 20.8396 20.3519 20.9383 20.7313 21.0752L20.7327 21.0757C22.4831 21.7232 23.1348 23.0641 22.9117 24.3253C22.691 25.5726 21.6195 26.7077 20.0083 26.9754C19.422 27.1017 18.8119 27.0771 18.2383 26.904C17.6633 26.7304 17.1449 26.4135 16.7348 25.9848L16.7241 25.9736C16.5946 25.8121 16.5075 25.6223 16.4689 25.421C16.4334 25.2393 16.4521 25.0515 16.5228 24.8798C16.593 24.709 16.7118 24.5613 16.865 24.4536C17.0269 24.3316 17.2221 24.2584 17.4263 24.2431C17.6299 24.2279 17.8336 24.2709 18.0124 24.3668C18.191 24.4506 18.3571 24.5576 18.5061 24.6848L18.5089 24.6872C18.7727 24.9216 19.0917 24.9827 19.3977 24.9261C19.7081 24.8687 20 24.6902 20.1878 24.4532C20.3743 24.2178 20.4492 23.9381 20.3603 23.6666C20.2709 23.3931 20.002 23.0867 19.4113 22.8306C19.2569 22.7668 19.0967 22.7154 18.9302 22.6654C18.8853 22.6519 18.8396 22.6384 18.7934 22.6248C18.6702 22.5884 18.5435 22.551 18.4193 22.5098C18.3337 22.4814 18.2488 22.4545 18.1647 22.4279C17.9349 22.3551 17.7109 22.2842 17.4953 22.1891C17.0261 22.0338 16.6207 21.7356 16.3395 21.3385C16.0571 20.9399 15.915 20.4633 15.9344 19.9797C15.9359 18.8014 16.6993 17.9895 17.667 17.5549Z" fill="#4CFF68"/>
<path d="M29.8712 17.4295C29.6846 17.3409 29.4782 17.2988 29.2707 17.307C29.0631 17.3154 28.861 17.3737 28.6825 17.477C28.5051 17.5796 28.3566 17.7232 28.2501 17.895C28.1526 18.0398 28.085 18.2017 28.0513 18.3716C28.0177 18.5415 28.0185 18.716 28.0537 18.8855C28.0884 19.1032 28.127 19.315 28.165 19.5238C28.2281 19.8695 28.2894 20.2073 28.3298 20.5518L28.3313 20.5605C28.4234 21.1007 28.4716 21.647 28.4759 22.1945L28.4764 22.2023C28.5078 22.7936 28.3006 23.3733 27.8991 23.8185L27.8927 23.8265C27.7621 23.9892 27.5875 24.1134 27.3883 24.1852C27.1891 24.257 26.9734 24.2735 26.7652 24.2329C26.5569 24.1923 26.3644 24.0961 26.2092 23.9552C26.0539 23.8143 25.942 23.6336 25.8861 23.4344C25.7668 23.0146 25.6977 22.5828 25.6801 22.1477L25.8839 18.9934C25.887 18.9522 25.8904 18.9099 25.8939 18.8673C25.9016 18.7715 25.9096 18.6739 25.9129 18.5829C25.9177 18.449 25.9136 18.3112 25.8815 18.1809C25.8486 18.0476 25.7862 17.9209 25.6753 17.813C25.5656 17.7061 25.4175 17.6273 25.2311 17.5736C24.8941 17.4788 24.6091 17.4818 24.3717 17.5798C24.1341 17.6778 23.9713 17.8597 23.8561 18.0698C23.7418 18.2782 23.6683 18.5248 23.6128 18.7719C23.5716 18.9553 23.5385 19.1478 23.507 19.331C23.4961 19.3941 23.4855 19.4561 23.4747 19.5163L23.4744 19.518C23.306 20.5228 23.2559 21.5429 23.325 22.5587C23.3379 23.1076 23.4556 23.6495 23.6723 24.1565C23.9168 24.8108 24.3595 25.3777 24.9422 25.7823C25.5261 26.1878 26.2228 26.4112 26.9402 26.423C27.6576 26.4348 28.3618 26.2344 28.9594 25.8485C29.5561 25.463 30.0186 24.9106 30.2856 24.2643C30.6591 23.441 30.8345 22.5457 30.7983 21.6465C30.7764 20.99 30.7396 20.3285 30.7031 19.6704C30.6851 19.3475 30.6672 19.0254 30.6512 18.7052C30.6431 18.3841 30.5342 18.0731 30.339 17.814C30.2183 17.6501 30.0575 17.518 29.8712 17.4295Z" fill="#4CFF68"/>
<path d="M36.4775 22.3754C36.4586 22.3988 36.4386 22.423 36.4178 22.4481C36.2659 21.5967 36.1252 20.7455 35.9843 19.893C35.9338 19.5872 35.883 19.28 35.8319 18.9737L35.8261 18.9396L35.8075 18.91C35.7723 18.8545 35.7688 18.8 35.7688 18.6838V18.6704L35.7667 18.6571C35.7286 18.4172 35.6169 18.1939 35.4464 18.0164C35.2763 17.8395 35.0555 17.7164 34.8125 17.6629C34.57 17.6048 34.3151 17.6176 34.08 17.6998C33.8454 17.7818 33.641 17.9292 33.4922 18.1236C33.3685 18.2727 33.2671 18.4381 33.1911 18.6148C33.0187 18.9955 32.8447 19.3772 32.6703 19.7599L32.6672 19.7665C32.2318 20.722 31.7933 21.6838 31.3676 22.6532L31.3663 22.6564C31.105 23.2849 30.8893 23.9472 30.6743 24.6075C30.6314 24.7393 30.5884 24.871 30.5452 25.0024C30.4675 25.2108 30.4336 25.4321 30.4453 25.6534C30.4311 25.8514 30.4799 26.049 30.5851 26.2194C30.6923 26.3933 30.853 26.53 31.0444 26.6106C31.2472 26.697 31.474 26.7154 31.6888 26.6627C31.9032 26.6102 32.0935 26.4899 32.2299 26.3208C32.4041 26.1125 32.5539 25.8853 32.6761 25.6446C33.0367 24.9275 33.3813 24.2016 33.7244 23.4789C33.8572 23.1994 33.9862 22.949 34.1329 22.6763C34.143 22.7099 34.1533 22.7427 34.1639 22.7756C34.3177 23.4339 34.5773 24.0644 34.9331 24.6441C35.0005 24.7669 35.0943 24.8742 35.2081 24.9587C35.3233 25.0442 35.4563 25.1042 35.5977 25.1347C35.7392 25.1652 35.8858 25.1653 36.0273 25.1351C36.1686 25.105 36.302 25.0449 36.4173 24.9598L36.6454 24.7938L38.4161 23.3438L38.3114 23.9925C38.1677 24.8843 38.0251 25.7686 37.8735 26.6531C37.7744 27.0452 37.7745 27.4547 37.8739 27.8466C37.917 28.0671 38.0267 28.2702 38.1891 28.4299C38.3528 28.5908 38.5625 28.7002 38.791 28.7438C39.0195 28.7874 39.2562 28.7633 39.4704 28.6744C39.6814 28.5869 39.8609 28.4406 39.9864 28.2542C40.2784 27.902 40.4601 27.4757 40.51 27.0259C40.5852 26.3907 40.6701 25.7468 40.755 25.1032C40.8529 24.3613 40.9507 23.6196 41.0334 22.8922L41.0336 22.8899C41.1132 22.0937 41.1517 21.2941 41.149 20.494C41.1664 20.2412 41.1017 19.9894 40.9637 19.7741C40.8253 19.5581 40.6202 19.3902 40.3779 19.2941C40.1258 19.1827 39.8437 19.1529 39.5729 19.2092C39.3039 19.2651 39.0604 19.403 38.8777 19.6027C38.5511 19.8964 38.2447 20.2106 37.9605 20.5434L37.9586 20.5457C37.6483 20.9215 37.3401 21.3048 37.0339 21.6856C36.8478 21.9171 36.6621 22.148 36.4775 22.3754Z" fill="#4CFF68"/>
</g>
<defs>
<clipPath id="clip0_207_1453">
<rect width="48" height="30" fill="white"/>
</clipPath>
</defs>
</svg>
